<?xml version="1.0" encoding="utf-8"?>
<!-- Generator: Adobe Illustrator 25.0.0, SVG Export Plug-In . SVG Version: 6.00 Build 0)  -->
<svg version="1.1" xmlns="http://www.w3.org/2000/svg" xmlns:xlink="http://www.w3.org/1999/xlink" x="0px" y="0px"
	 viewBox="0 0 566.93 566.93" style="enable-background:new 0 0 566.93 566.93;" xml:space="preserve">
<style type="text/css">
	.st0{fill:#96D1F1;}
	.st1{fill:#FBF2A5;}
	.st2{fill:#5B2376;}
	.st3{fill:#EC94B5;}
	.st4{fill:#F5B97A;}
	.st5{fill:none;}
	.st6{clip-path:url(#SVGID_2_);}
	.st7{clip-path:url(#SVGID_3_);}
	.st8{fill:#FFFFFF;}
	.st9{fill:#23232D;}
	.st10{fill:none;stroke:#23232D;stroke-miterlimit:10;}
</style>
<g id="CSAPOK_1_">
	<g>
		<g>
			<path class="st0" d="M157.76,431.89c-1.61-0.92,6.99,9.89,5.89,11.8c-1.51,2.63-1.53,4.33-0.77,6.76
				c0.94,2.97,0.64,5.85-1.73,9.97c-2.49,4.33-3.97,7.83-6.75,6.24c-1.13-0.65,0.5,5.67,0.44,4.32l2.13-2.82
				c0.11,1.39-3.8-5.54-2.76-4.94c1.55,0.89,3.59-0.55,5.21-3.38c1.5-2.62,2.75-5.66,2-8.03c-0.99-2.73-1.82-4.61,0.45-8.57
				c2.51-4.38-4.63-15.63-2.34-14.31"/>
		</g>
		<g>
			<path class="st1" d="M186.9,438.51c-1.61-0.92,6.99,9.89,5.89,11.8c-1.51,2.63-1.53,4.33-0.77,6.76
				c0.94,2.97,0.64,5.85-1.73,9.97c-2.49,4.33-3.97,7.83-6.75,6.24c-1.13-0.65,0.5,5.67,0.44,4.32l2.13-2.82
				c0.11,1.39-3.8-5.54-2.76-4.94c1.55,0.89,3.59-0.55,5.21-3.38c1.5-2.62,2.75-5.66,2-8.03c-0.99-2.73-1.82-4.61,0.45-8.57
				c2.51-4.38-4.63-15.63-2.34-14.31"/>
		</g>
		<g>
			<path class="st2" d="M256.29,434.99c-1.61-0.92,6.99,9.89,5.89,11.8c-1.51,2.63-1.53,4.33-0.77,6.76
				c0.94,2.97,0.64,5.85-1.73,9.97c-2.49,4.33-3.97,7.83-6.75,6.24c-1.13-0.65,0.5,5.67,0.44,4.32l2.13-2.82
				c0.11,1.39-3.8-5.54-2.76-4.94c1.55,0.89,3.59-0.55,5.21-3.38c1.5-2.62,2.75-5.66,2-8.03c-0.99-2.73-1.82-4.61,0.45-8.57
				c2.51-4.38-4.63-15.63-2.34-14.31"/>
		</g>
		<g>
			<path class="st3" d="M332.16,428.3c-1.61-0.92,6.99,9.89,5.89,11.8c-1.51,2.63-1.53,4.33-0.77,6.76
				c0.94,2.97,0.64,5.85-1.73,9.97c-2.49,4.33-3.97,7.83-6.75,6.24c-1.13-0.65,0.5,5.67,0.44,4.32l2.13-2.82
				c0.11,1.39-3.8-5.54-2.76-4.94c1.55,0.89,3.59-0.55,5.21-3.38c1.5-2.62,2.75-5.66,2-8.03c-0.99-2.73-1.82-4.61,0.45-8.57
				c2.51-4.38-4.63-15.63-2.34-14.31"/>
		</g>
		<g>
			<path class="st0" d="M367.76,428.3c-1.61-0.92,6.99,9.89,5.89,11.8c-1.51,2.63-1.53,4.33-0.77,6.76
				c0.94,2.97,0.64,5.85-1.73,9.97c-2.49,4.33-3.97,7.83-6.75,6.24c-1.13-0.65,0.5,5.67,0.44,4.32l2.13-2.82
				c0.11,1.39-3.8-5.54-2.76-4.94c1.55,0.89,3.59-0.55,5.21-3.38c1.5-2.62,2.75-5.66,2-8.03c-0.99-2.73-1.82-4.61,0.45-8.57
				c2.51-4.38-4.63-15.63-2.34-14.31"/>
		</g>
		<g>
			<path class="st3" d="M387.9,428.3c-1.61-0.92,6.99,9.89,5.89,11.8c-1.51,2.63-1.53,4.33-0.77,6.76c0.94,2.97,0.64,5.85-1.73,9.97
				c-2.49,4.33-3.97,7.83-6.75,6.24c-1.13-0.65,0.5,5.67,0.44,4.32l2.13-2.82c0.11,1.39-3.8-5.54-2.76-4.94
				c1.55,0.89,3.59-0.55,5.21-3.38c1.5-2.62,2.75-5.66,2-8.03c-0.99-2.73-1.82-4.61,0.45-8.57c2.51-4.38-4.63-15.63-2.34-14.31"/>
		</g>
		<g>
			<path class="st3" d="M277.48,445.41c-1.61-0.92,6.99,9.89,5.89,11.8c-1.51,2.63-1.53,4.33-0.77,6.76
				c0.94,2.97,0.64,5.85-1.73,9.97c-2.49,4.33-3.97,7.83-6.75,6.24c-1.13-0.65,0.5,5.67,0.44,4.32l2.13-2.82
				c0.11,1.39-3.8-5.54-2.76-4.94c1.55,0.89,3.59-0.55,5.21-3.38c1.5-2.62,2.75-5.66,2-8.03c-0.99-2.73-1.82-4.61,0.45-8.57
				c2.51-4.38-4.63-15.63-2.34-14.31"/>
		</g>
		<g>
			<path class="st4" d="M216.03,434.99c-1.61-0.92,6.99,9.89,5.89,11.8c-1.51,2.63-1.53,4.33-0.77,6.76
				c0.94,2.97,0.64,5.85-1.73,9.97c-2.49,4.33-3.97,7.83-6.75,6.24c-1.13-0.65,0.5,5.67,0.44,4.32l2.13-2.82
				c0.11,1.39-3.8-5.54-2.76-4.94c1.55,0.89,3.59-0.55,5.21-3.38c1.5-2.62,2.75-5.66,2-8.03c-0.99-2.73-1.82-4.61,0.45-8.57
				c2.51-4.38-4.63-15.63-2.34-14.31"/>
		</g>
		<g>
			<path class="st1" d="M305.91,441.63c-1.61-0.92,6.99,9.89,5.89,11.8c-1.51,2.63-1.53,4.33-0.77,6.76
				c0.94,2.97,0.64,5.85-1.73,9.97c-2.49,4.33-3.97,7.83-6.75,6.24c-1.13-0.65,0.5,5.67,0.44,4.32l2.13-2.82
				c0.11,1.39-3.8-5.54-2.76-4.94c1.55,0.89,3.59-0.55,5.21-3.38c1.5-2.62,2.75-5.66,2-8.03c-0.99-2.73-1.82-4.61,0.45-8.57
				c2.51-4.38-4.63-15.63-2.34-14.31"/>
		</g>
		<g>
			<path class="st2" d="M408.03,434.99c-1.61-0.92,6.99,9.89,5.89,11.8c-1.51,2.63-1.53,4.33-0.77,6.76
				c0.94,2.97,0.64,5.85-1.73,9.97c-2.49,4.33-3.97,7.83-6.75,6.24c-1.13-0.65,0.5,5.67,0.44,4.32l2.13-2.82
				c0.11,1.39-3.8-5.54-2.76-4.94c1.55,0.89,3.59-0.55,5.21-3.38c1.5-2.62,2.75-5.66,2-8.03c-0.99-2.73-1.82-4.61,0.45-8.57
				c2.51-4.38-4.63-15.63-2.34-14.31"/>
		</g>
	</g>
</g>
<g id="UNDER_BODY">
	<path class="st5" d="M-296.7,401.06"/>
	<g>
		<g>
			<defs>
				<path id="SVGID_1_" d="M155.21,350.54c0,0-19.16,54.63-15.94,65.97c3.22,11.34,13.21,18.8,25.57,15.61
					c12.36-3.19,11.82,14.16,14.87,14.77c3.05,0.61,9.59,3.88,24.88-3.31s18.31-21.91,28.42-18.53s27.82,25.42,39.56,25.77
					s27.66-2.21,43.81-12.44s36.36-19.3,42.79-12.46c6.43,6.84,17.9-0.46,17.9-0.46s11.23,0.35,11.61,4.45
					c0.38,4.1,2.14,13.35,13.41,12.17s34.9-21.39,35.52-24.95c0.62-3.56,0.55-63.03-13.74-54.86
					c-3.83,2.19-61.28,30.64-132.49,30.64c-38.27,0-70.51-9.71-97.3-18.64C168.23,365.66,155.21,350.54,155.21,350.54z"/>
			</defs>
			<clipPath id="SVGID_2_">
				<use xlink:href="#SVGID_1_"  style="overflow:visible;"/>
			</clipPath>
			<g class="st6">
			</g>
		</g>
	</g>
	<circle class="st5" cx="-279.85" cy="182.64" r="12.26"/>
</g>
<g id="BODY_1_">
	<g>
		<g>
			<g>
				<g>
					<defs>
						<path id="SVGID_5_" d="M457.99,268.97c-3.87,120.16-71.57,114.54-175.83,115.83c-106.45,1.32-156.72-24.87-157.58-141.23
							c-0.76-102.14,78.65-216.08,166.81-213.72C424,33.42,461.4,162.88,457.99,268.97z"/>
					</defs>
					<clipPath id="SVGID_3_">
						<use xlink:href="#SVGID_5_"  style="overflow:visible;"/>
					</clipPath>
					<g class="st7">
					</g>
				</g>
			</g>
			<path class="st8" d="M391.7,328.32c-0.52,16.14-2.22,32.94-5.36,42.13c-9.12,26.7-63.57,13.93-99.37,14.37
				c-28.3,0.35-62.24,4.16-79.1-9.78c-13.44-11.1-12.84-36.63-13.02-61.28c-0.36-48.79,54.42-103,96.53-101.87
				C354.72,213.6,393.33,277.65,391.7,328.32z"/>
		</g>
		<g>
			
				<ellipse transform="matrix(0.2184 -0.9759 0.9759 0.2184 63.7963 351.0259)" class="st9" cx="251.04" cy="135.69" rx="14.29" ry="7.73"/>
			
				<ellipse transform="matrix(0.9805 -0.1963 0.1963 0.9805 -20.5568 67.8176)" class="st9" cx="331.81" cy="137.6" rx="7.73" ry="14.29"/>
			<path class="st10" d="M277.38,164.95c0,0,10.42,12.24,22.67,0"/>
		</g>
	</g>
</g>
</svg>
